<svg id="svg" version="1.1" xmlns="http://www.w3.org/2000/svg" xmlns:xlink="http://www.w3.org/1999/xlink" width="400" height="400" viewBox="0, 0, 400,400"><g id="svgg"><path id="path0" d="M-0.000 40.757 L -0.000 81.513 0.976 81.758 C 1.859 81.980,4.658 81.730,5.231 81.379 C 5.590 81.159,13.614 80.000,14.777 80.000 C 16.949 80.000,22.400 74.299,22.400 72.027 C 22.400 71.775,22.756 70.870,23.192 70.016 C 23.628 69.162,24.338 66.874,24.771 64.932 C 25.485 61.728,26.867 58.157,29.312 53.200 C 30.765 50.254,36.211 44.347,45.539 35.600 C 49.953 31.460,51.394 28.926,52.023 24.200 C 52.541 20.298,52.833 20.018,55.887 20.481 C 57.159 20.673,59.087 20.910,60.171 21.007 C 61.256 21.104,62.257 21.368,62.396 21.594 C 63.236 22.952,66.955 21.125,67.348 19.160 C 67.603 17.884,65.955 9.652,64.384 4.357 C 63.953 2.903,63.600 1.328,63.600 0.857 C 63.600 -0.349,48.656 -0.503,47.780 0.695 C 47.298 1.354,47.233 1.354,46.505 0.695 C 45.795 0.052,44.020 0.000,22.869 0.000 L 0.000 0.000 -0.000 40.757 M68.400 0.649 C 68.400 3.088,73.853 16.783,75.520 18.529 C 81.190 24.472,89.114 26.561,98.662 24.631 C 103.558 23.641,104.227 23.595,108.262 23.979 C 131.654 26.201,133.249 26.159,135.686 23.262 C 137.233 21.424,148.000 1.263,148.000 0.205 C 148.000 0.092,142.710 0.000,136.245 0.000 L 124.489 0.000 123.345 3.291 C 120.547 11.334,116.792 13.611,105.000 14.412 C 102.140 14.607,96.831 15.117,93.202 15.547 C 84.861 16.535,84.838 16.528,81.829 11.862 C 78.994 7.468,76.000 1.777,76.000 0.783 C 76.000 0.061,75.706 0.000,72.200 0.000 C 68.960 0.000,68.400 0.096,68.400 0.649 M150.018 3.019 C 144.527 16.208,142.903 23.624,143.261 33.874 L 143.400 37.868 146.041 43.241 C 155.919 63.339,164.347 76.442,171.121 82.234 C 176.620 86.936,183.519 87.934,194.573 85.626 C 201.964 84.082,203.257 84.320,207.600 88.016 C 210.727 90.678,212.121 91.310,214.348 91.076 C 215.367 90.970,218.270 90.677,220.800 90.425 C 231.482 89.365,234.041 88.899,236.764 87.519 C 240.029 85.864,243.302 82.728,243.989 80.596 C 245.375 76.297,253.789 55.552,254.857 53.800 C 255.527 52.700,258.250 48.740,260.908 45.000 C 263.566 41.260,266.763 36.760,268.012 35.000 C 271.121 30.622,272.057 26.876,272.112 18.600 C 272.142 14.138,271.672 12.988,267.238 6.654 C 265.451 4.102,263.783 1.561,263.530 1.007 C 263.078 0.013,263.010 0.000,258.436 0.021 L 253.800 0.043 255.175 1.121 C 265.293 9.060,266.905 24.343,258.531 32.935 C 256.780 34.731,253.835 37.910,251.986 40.000 C 250.138 42.090,247.063 45.437,245.154 47.439 C 240.473 52.347,239.399 54.969,238.616 63.400 C 237.779 72.419,236.820 73.898,228.904 78.372 C 226.118 79.947,219.417 82.400,217.900 82.400 C 215.129 82.400,210.523 77.805,209.205 73.725 C 208.284 70.873,207.431 69.411,205.458 67.300 C 203.377 65.074,202.412 65.598,201.195 69.617 C 199.449 75.384,192.512 81.600,187.822 81.600 C 184.719 81.600,169.401 70.342,167.557 66.705 C 167.081 65.767,165.431 62.750,163.891 60.000 C 162.351 57.250,159.468 51.850,157.486 48.000 C 152.178 37.692,152.297 37.842,149.301 37.600 C 145.667 37.306,145.391 36.897,145.442 31.882 C 145.535 22.662,146.948 16.249,151.035 6.495 C 152.985 1.840,153.269 0.000,152.037 -0.000 C 151.465 -0.000,150.960 0.755,150.018 3.019 M269.747 0.700 C 269.858 1.085,270.340 2.886,270.819 4.703 C 271.801 8.428,274.283 11.677,280.580 17.479 C 285.472 21.987,284.089 21.727,301.549 21.414 C 330.641 20.894,331.813 20.434,338.563 6.900 L 342.004 -0.000 331.898 -0.000 C 321.851 -0.000,321.789 0.005,321.232 0.900 C 317.190 7.384,310.268 11.300,304.468 10.383 C 291.867 8.391,284.749 5.260,284.129 1.437 L 283.895 -0.000 276.721 -0.000 C 270.078 -0.000,269.561 0.052,269.747 0.700 M347.071 1.144 C 346.945 1.773,345.214 5.756,343.223 9.995 C 336.198 24.953,336.518 27.316,348.336 47.800 C 349.986 50.660,351.998 54.170,352.808 55.600 C 353.617 57.030,354.910 59.280,355.681 60.600 C 356.451 61.920,358.211 64.980,359.592 67.400 C 365.355 77.503,379.447 92.800,382.992 92.800 C 384.566 92.800,386.076 91.689,386.275 90.385 C 386.354 89.867,386.865 88.646,387.409 87.672 C 387.954 86.697,388.400 85.286,388.400 84.537 C 388.400 82.866,388.339 82.886,394.067 82.702 C 397.135 82.604,398.951 82.373,399.367 82.027 C 399.937 81.555,400.000 77.429,400.000 40.751 L 400.000 0.000 381.300 0.007 L 362.600 0.014 361.740 1.245 L 360.880 2.476 360.608 1.238 L 360.336 0.000 353.818 -0.000 L 347.300 -0.000 347.071 1.144 M283.129 24.792 C 280.172 25.685,276.712 29.767,271.563 38.437 C 267.447 45.369,247.544 79.331,246.151 81.800 C 244.151 85.346,241.697 94.780,242.112 97.332 C 242.359 98.858,247.376 107.401,256.494 121.820 C 269.177 141.880,273.243 147.974,274.871 149.368 C 278.522 152.493,295.156 157.530,300.200 157.037 C 304.245 156.642,331.821 151.473,335.711 150.381 C 338.611 149.566,342.070 145.288,350.408 132.200 C 354.184 126.274,355.661 124.041,362.716 113.600 C 366.170 108.488,366.650 107.249,367.395 101.518 C 367.747 98.813,368.224 95.748,368.456 94.706 C 369.008 92.222,368.242 90.651,364.091 85.755 C 354.312 74.224,354.668 74.725,350.298 66.283 C 347.997 61.838,343.433 52.620,340.157 45.800 C 333.339 31.607,332.521 30.490,326.931 27.726 L 323.843 26.200 307.422 26.095 C 292.544 26.000,290.709 25.916,287.911 25.195 C 284.517 24.322,284.650 24.333,283.129 24.792 M284.987 27.050 C 285.346 27.188,286.166 28.345,286.811 29.621 C 289.189 34.332,294.948 34.968,294.984 30.524 L 295.000 28.600 305.200 28.332 C 321.217 27.911,322.275 28.117,321.013 31.421 C 320.087 33.847,320.440 34.914,322.681 36.456 C 325.258 38.229,332.169 44.242,334.626 46.850 C 337.856 50.278,338.294 51.160,348.803 75.400 C 349.947 78.040,351.653 81.921,352.592 84.023 C 354.890 89.164,355.480 92.149,355.811 100.288 C 356.174 109.234,356.063 109.437,346.326 117.665 C 344.415 119.279,340.229 123.072,337.024 126.094 C 329.608 133.085,328.540 133.625,313.000 138.241 C 303.864 140.954,298.626 141.801,296.148 140.968 C 292.766 139.830,279.146 133.995,275.531 132.135 C 271.071 129.841,270.210 128.552,260.414 109.498 C 254.761 98.501,255.048 98.802,250.211 98.794 C 244.453 98.785,243.607 97.858,244.669 92.727 C 245.580 88.323,247.258 84.128,250.021 79.345 C 278.831 29.474,281.378 25.665,284.987 27.050 M71.952 28.923 C 66.451 30.798,67.400 29.312,51.983 60.200 C 39.983 84.241,39.877 84.510,40.439 89.527 C 41.456 98.619,42.004 99.696,57.529 123.057 C 64.526 133.586,70.633 142.830,71.100 143.600 C 71.567 144.370,72.636 145.657,73.475 146.461 C 77.917 150.715,98.801 162.253,101.400 161.889 C 106.502 161.174,125.248 154.830,131.133 151.828 C 134.241 150.241,135.694 148.246,143.383 135.000 C 145.554 131.260,148.540 126.130,150.020 123.600 C 156.878 111.873,164.433 90.865,163.349 86.536 C 162.638 83.696,150.253 58.233,145.676 50.200 C 134.516 30.614,124.566 25.371,106.800 29.713 C 90.951 33.586,90.639 33.593,82.959 30.269 C 77.022 27.699,75.934 27.566,71.952 28.923 M54.800 30.200 C 54.800 31.178,54.981 31.600,55.400 31.600 C 56.016 31.600,56.188 30.556,55.757 29.433 C 55.332 28.325,54.800 28.751,54.800 30.200 M79.748 31.756 C 81.757 32.721,84.621 33.996,86.114 34.589 L 88.827 35.666 94.714 34.461 C 97.951 33.798,103.778 32.490,107.662 31.553 L 114.724 29.850 117.062 30.481 C 118.348 30.828,120.570 31.386,122.000 31.722 C 131.268 33.893,137.062 39.823,145.329 55.600 C 154.262 72.648,159.649 84.084,159.035 84.699 C 158.919 84.814,157.964 84.547,156.912 84.106 C 152.285 82.162,151.810 82.442,150.979 87.600 C 149.938 94.063,145.832 107.562,143.499 112.195 C 141.761 115.644,125.583 138.795,122.854 141.737 C 121.029 143.705,114.503 146.050,104.800 148.225 C 99.270 149.465,99.060 149.725,99.447 154.859 C 99.594 156.806,99.597 158.400,99.452 158.400 C 98.763 158.400,87.515 152.493,83.512 150.029 C 76.218 145.540,74.910 144.488,73.309 141.825 C 71.080 138.116,64.478 128.102,62.428 125.319 C 61.423 123.954,59.832 121.614,58.894 120.119 C 57.169 117.369,56.114 115.760,51.836 109.345 C 44.159 97.833,44.096 97.721,43.172 93.872 C 42.662 91.749,42.292 88.935,42.295 87.200 L 42.301 84.200 48.986 70.400 C 52.663 62.810,55.807 56.420,55.973 56.200 C 56.139 55.980,58.664 51.120,61.584 45.400 C 68.358 32.131,68.462 31.995,73.000 30.560 C 75.422 29.794,75.809 29.862,79.748 31.756 M30.300 53.774 C 28.885 55.748,29.554 60.400,31.252 60.400 C 31.884 60.400,32.400 60.537,32.400 60.705 C 32.400 60.873,32.805 61.188,33.300 61.405 C 33.995 61.710,34.228 62.187,34.323 63.500 C 34.430 64.977,34.568 65.200,35.376 65.200 C 36.467 65.200,36.682 64.612,37.058 60.600 C 37.203 59.060,37.519 57.668,37.761 57.506 C 38.035 57.323,37.948 57.210,37.529 57.206 C 36.628 57.198,35.200 55.321,35.200 54.146 C 35.200 53.346,34.999 53.199,33.900 53.195 C 33.185 53.192,32.240 53.101,31.800 52.993 C 31.263 52.861,30.770 53.118,30.300 53.774 M378.800 65.663 C 380.261 66.560,379.942 67.073,378.194 66.634 C 377.112 66.363,375.996 64.799,376.886 64.801 C 377.169 64.802,378.030 65.190,378.800 65.663 M24.692 77.042 C 23.648 78.086,24.427 79.200,26.200 79.200 C 27.904 79.200,27.999 79.141,27.973 78.100 C 27.946 77.020,27.938 77.016,27.512 77.900 C 26.926 79.114,25.749 79.047,25.325 77.775 C 25.137 77.211,24.852 76.881,24.692 77.042 M3.200 85.424 C 3.200 86.271,3.362 86.747,3.600 86.600 C 3.820 86.464,4.000 85.823,4.000 85.176 C 4.000 84.529,3.820 84.000,3.600 84.000 C 3.380 84.000,3.200 84.641,3.200 85.424 M12.500 86.289 C 9.527 86.658,10.765 88.400,14.000 88.400 L 16.800 88.400 16.800 87.200 C 16.800 85.912,16.336 85.813,12.500 86.289 M176.519 92.420 C 174.302 92.858,173.513 93.296,170.276 95.890 C 165.507 99.712,164.984 100.810,162.219 112.800 C 159.794 123.317,159.327 124.458,153.285 134.600 C 147.491 144.326,145.419 148.530,143.838 153.757 C 141.695 160.846,141.470 159.885,148.013 171.600 C 150.286 175.670,153.740 181.877,155.689 185.394 C 160.287 193.690,165.364 200.304,174.252 209.580 C 180.771 216.383,178.722 215.903,209.336 217.788 C 225.724 218.797,225.162 218.874,237.523 213.948 C 247.572 209.944,248.602 209.158,256.770 199.260 C 263.146 191.533,264.078 189.929,266.562 182.400 C 270.458 170.589,273.702 158.808,273.431 157.454 C 272.944 155.019,266.399 143.358,260.603 134.600 C 257.368 129.711,255.275 126.039,247.493 111.600 C 239.003 95.849,238.693 95.626,228.065 97.599 C 217.018 99.651,212.616 98.964,205.523 94.085 C 204.567 93.427,203.068 92.690,202.192 92.447 C 200.325 91.928,179.120 91.906,176.519 92.420 M198.000 97.393 C 199.977 97.932,200.641 98.440,204.546 102.401 C 209.142 107.061,209.786 107.435,212.496 107.030 C 213.433 106.890,217.530 106.582,221.600 106.346 C 233.195 105.673,232.153 104.586,237.558 123.000 C 240.938 134.513,240.738 134.151,244.881 136.239 C 249.587 138.611,250.944 140.326,258.381 153.294 C 262.059 159.706,262.059 159.704,258.016 168.600 C 256.417 172.120,254.060 177.577,252.778 180.727 C 249.331 189.201,246.448 192.817,238.200 199.009 C 232.573 203.233,229.152 203.964,212.000 204.607 C 188.979 205.470,179.544 202.346,171.079 191.061 C 162.210 179.238,153.895 167.071,152.072 163.252 L 150.666 160.304 151.162 154.937 C 151.705 149.064,152.351 146.637,154.016 144.200 C 155.472 142.070,158.700 137.180,160.245 134.766 C 160.929 133.696,161.939 132.231,162.488 131.510 C 163.037 130.790,163.943 129.300,164.500 128.200 C 165.057 127.100,165.894 125.856,166.358 125.436 C 167.736 124.191,168.002 122.160,167.911 113.562 C 167.803 103.327,169.005 100.085,173.174 99.361 C 173.958 99.224,175.971 98.767,177.646 98.344 C 185.147 96.449,193.169 96.075,198.000 97.393 M18.200 99.409 C 7.260 101.514,6.039 101.671,2.900 101.377 L 0.000 101.106 -0.000 107.128 L -0.000 113.151 1.818 113.424 C 4.178 113.778,4.133 113.850,4.600 108.883 C 5.079 103.789,4.765 104.053,11.800 102.819 C 14.440 102.356,18.512 101.618,20.848 101.179 C 26.152 100.182,27.197 100.430,27.206 102.690 C 27.214 104.742,27.276 104.807,31.624 107.350 C 36.815 110.387,38.412 112.882,44.194 127.000 C 44.915 128.760,46.088 131.460,46.801 133.000 C 48.076 135.755,48.847 137.579,53.341 148.477 C 56.217 155.450,56.361 154.546,51.066 162.764 C 48.572 166.634,44.317 173.580,41.609 178.200 C 32.571 193.622,31.596 194.889,25.735 198.844 C 20.832 202.152,15.919 204.169,4.300 207.642 L -0.000 208.927 -0.000 215.021 C -0.000 221.890,-0.142 221.600,3.227 221.600 C 5.395 221.600,7.526 221.022,21.000 216.782 C 33.279 212.918,36.344 211.734,37.927 210.247 C 39.825 208.463,47.555 196.091,65.821 165.600 L 68.577 161.000 68.728 156.389 C 68.952 149.547,68.038 147.590,53.542 123.868 C 39.929 101.592,40.169 101.870,32.540 99.466 C 27.463 97.866,26.251 97.861,18.200 99.409 M381.105 99.789 C 376.604 101.491,375.283 102.992,362.977 120.400 C 342.679 149.111,344.192 146.237,344.572 155.356 C 344.920 163.717,345.309 165.938,346.963 169.000 C 360.365 193.811,371.772 212.074,375.543 214.760 C 376.507 215.446,393.309 219.928,398.700 220.937 L 400.000 221.180 400.000 215.190 L 400.000 209.200 398.649 209.200 C 396.158 209.200,379.839 199.423,376.520 195.943 C 374.866 194.209,372.012 189.483,368.821 183.200 C 364.472 174.634,361.526 169.020,361.106 168.500 C 360.496 167.745,358.765 167.893,355.315 168.995 C 348.586 171.144,347.210 169.010,346.891 155.929 C 346.666 146.705,345.753 149.088,354.236 136.764 C 359.454 129.185,362.311 125.120,372.632 110.592 C 379.676 100.677,386.723 98.429,389.948 105.067 C 390.581 106.370,391.260 107.020,392.812 107.806 C 393.931 108.373,396.006 109.547,397.423 110.414 L 400.000 111.991 400.000 106.490 L 400.000 100.989 393.500 100.225 C 384.715 99.192,382.858 99.127,381.105 99.789 M296.345 161.176 C 292.477 161.509,291.049 162.161,284.697 166.499 C 280.057 169.668,279.680 170.181,277.238 176.653 C 274.161 184.806,271.247 190.639,268.973 193.200 C 267.898 194.410,264.752 197.834,261.981 200.810 C 252.233 211.279,249.106 219.153,251.455 227.318 C 253.945 235.970,257.209 243.647,263.313 255.200 C 281.544 289.709,284.246 292.796,288.590 284.079 C 289.214 282.825,289.800 281.712,289.891 281.605 C 290.108 281.350,317.704 281.224,318.119 281.477 C 318.744 281.857,317.483 282.800,316.351 282.800 C 315.718 282.800,315.200 282.980,315.200 283.200 C 315.200 283.420,315.669 283.600,316.243 283.600 C 316.997 283.600,317.223 283.763,317.060 284.189 C 316.929 284.530,317.201 285.036,317.706 285.389 C 318.699 286.085,321.200 286.217,321.200 285.574 C 321.200 285.050,320.390 283.473,319.980 283.200 C 318.821 282.427,319.511 281.488,321.905 280.581 C 324.562 279.575,325.810 278.752,330.044 275.211 C 334.582 271.416,336.584 269.801,336.796 269.767 C 338.497 269.496,339.200 269.019,339.200 268.138 C 339.200 267.187,340.619 265.540,342.141 264.725 C 342.943 264.295,342.784 267.306,341.959 268.180 C 341.205 268.978,341.728 272.400,342.604 272.400 C 342.885 272.400,343.218 272.670,343.345 273.000 C 343.707 273.944,344.400 273.701,344.400 272.629 C 344.400 272.094,344.670 271.387,345.000 271.057 C 345.688 270.369,345.863 265.600,345.200 265.600 C 344.980 265.600,344.800 265.240,344.800 264.800 C 344.800 264.360,344.575 263.995,344.300 263.988 C 344.025 263.981,344.123 263.788,344.518 263.558 C 344.971 263.294,345.150 262.872,345.003 262.409 C 344.869 261.986,345.156 261.095,345.685 260.291 C 346.188 259.528,347.073 258.115,347.650 257.152 C 348.228 256.188,349.915 253.420,351.399 251.000 C 352.884 248.580,354.715 245.167,355.470 243.416 C 356.224 241.665,357.042 239.991,357.286 239.696 C 357.530 239.402,358.467 237.685,359.368 235.880 L 361.006 232.600 363.003 232.557 C 368.888 232.430,371.209 229.547,371.180 222.400 C 371.160 217.374,369.558 213.882,360.813 199.800 C 359.994 198.480,357.786 194.790,355.907 191.600 C 341.678 167.442,338.439 163.543,330.909 161.513 C 329.091 161.023,301.274 160.752,296.345 161.176 M126.400 162.183 C 125.190 162.466,120.240 163.560,115.400 164.614 L 106.600 166.529 102.600 165.858 C 100.400 165.489,95.574 164.437,91.875 163.519 C 84.166 161.606,84.099 161.609,75.911 164.250 C 69.676 166.261,68.911 167.081,62.880 178.225 C 53.577 195.414,46.903 210.181,44.373 219.169 C 42.111 227.209,39.733 222.758,71.004 269.000 C 76.833 277.620,85.325 286.962,87.743 287.416 C 89.310 287.710,92.992 286.687,93.498 285.817 C 93.664 285.531,94.458 284.854,95.262 284.312 C 96.067 283.770,97.417 282.779,98.263 282.108 L 99.802 280.890 107.601 280.917 L 115.400 280.945 119.396 279.572 C 123.965 278.003,125.827 276.509,126.851 273.588 C 128.156 269.864,129.553 264.934,129.790 263.217 C 129.925 262.236,130.388 260.638,130.818 259.666 C 131.248 258.694,131.607 257.336,131.616 256.649 C 131.672 252.286,135.348 248.173,142.200 244.806 C 147.550 242.177,154.815 235.620,157.717 230.800 C 161.642 224.282,162.851 223.047,166.272 222.065 C 168.061 221.551,169.600 219.690,169.600 218.039 C 169.600 216.390,163.021 205.225,150.836 186.200 C 150.132 185.100,148.965 183.210,148.243 182.000 C 147.522 180.790,145.237 176.988,143.166 173.552 C 141.095 170.115,138.899 166.368,138.286 165.226 C 136.446 161.797,132.430 160.769,126.400 162.183 M330.000 172.400 C 331.315 173.715,330.907 174.049,329.310 172.965 C 327.348 171.633,327.324 171.600,328.333 171.600 C 328.810 171.600,329.560 171.960,330.000 172.400 M116.180 174.755 C 115.368 175.514,113.751 175.782,114.352 175.058 C 114.652 174.696,115.272 174.400,115.729 174.400 C 116.232 174.400,116.410 174.540,116.180 174.755 M129.200 174.800 C 129.733 175.145,129.733 175.188,129.200 175.188 C 128.870 175.188,128.330 175.013,128.000 174.800 C 127.467 174.455,127.467 174.412,128.000 174.412 C 128.330 174.412,128.870 174.587,129.200 174.800 M285.417 187.068 C 284.496 191.496,283.537 194.333,282.708 195.083 C 281.569 196.114,281.610 195.648,283.050 191.200 C 285.758 182.828,286.608 181.346,285.417 187.068 M18.600 223.823 C 12.717 224.895,4.734 226.221,1.900 226.597 C 0.323 226.806,-0.000 226.990,-0.000 227.682 C -0.000 228.833,3.390 228.557,15.375 226.429 C 29.572 223.908,31.251 224.219,36.818 230.399 C 38.458 232.220,40.807 234.810,42.039 236.155 C 43.270 237.500,45.061 239.770,46.018 241.200 C 46.975 242.630,48.552 244.880,49.523 246.200 C 50.493 247.520,52.429 250.940,53.825 253.800 C 55.220 256.660,57.733 261.340,59.409 264.200 C 61.084 267.060,63.815 271.997,65.477 275.172 C 67.139 278.346,68.924 281.743,69.443 282.720 C 70.844 285.354,70.841 285.355,62.107 285.052 L 54.337 284.783 53.222 285.976 C 52.609 286.632,51.529 288.301,50.822 289.685 C 49.166 292.926,48.799 293.307,45.694 295.014 C 40.480 297.880,29.011 307.383,27.446 310.135 C 26.181 312.356,25.432 315.381,23.649 325.453 C 22.071 334.370,21.661 335.488,19.478 336.816 C 18.061 337.679,8.564 340.806,4.200 341.846 C -0.085 342.868,0.000 342.711,0.000 349.662 C 0.000 352.928,0.117 355.600,0.259 355.600 C 0.401 355.600,1.526 355.249,2.759 354.819 C 3.992 354.390,8.060 353.653,11.800 353.181 C 33.408 350.457,32.600 350.920,34.428 340.200 C 36.085 330.489,44.142 316.889,51.548 311.306 C 56.028 307.928,59.245 304.754,63.163 299.846 C 65.121 297.393,67.820 294.433,69.160 293.267 C 75.549 287.710,75.355 286.711,63.988 266.600 C 61.500 262.200,58.497 256.530,57.314 254.000 C 54.154 247.245,53.796 246.617,50.329 241.755 C 43.771 232.558,37.972 226.922,32.211 224.144 C 28.765 222.483,26.279 222.425,18.600 223.823 M382.200 223.761 C 374.728 226.130,374.062 227.230,368.381 246.595 C 365.109 257.745,365.043 257.866,353.484 273.943 C 346.815 283.218,346.312 284.234,346.077 288.913 C 345.809 294.256,344.976 292.774,360.841 315.171 C 364.250 319.986,367.015 326.638,368.798 334.322 C 369.733 338.353,368.901 337.288,363.385 327.400 C 355.540 313.338,347.022 300.177,344.061 297.545 C 338.682 292.762,329.029 291.439,313.712 293.386 C 305.337 294.451,300.341 293.608,295.427 290.301 C 290.385 286.909,288.480 286.687,285.778 289.177 C 284.837 290.045,282.980 291.303,281.651 291.974 C 276.556 294.546,276.162 295.157,269.955 310.113 C 264.604 323.006,265.701 321.266,255.409 333.200 C 243.563 346.935,242.972 348.243,244.996 356.222 C 246.261 361.211,247.216 362.756,254.252 371.194 C 266.067 385.363,267.200 387.202,268.642 394.555 L 269.710 400.000 276.302 400.000 C 282.392 400.000,282.878 399.947,282.686 399.300 C 280.073 390.470,272.953 376.760,266.433 368.000 C 258.947 357.942,259.116 358.321,258.752 350.811 C 258.587 347.395,258.336 344.141,258.194 343.580 C 257.901 342.416,261.539 334.282,263.285 332.200 C 263.838 331.540,264.681 330.231,265.158 329.292 C 265.634 328.353,266.739 326.643,267.612 325.492 C 268.485 324.341,269.842 322.181,270.627 320.690 C 275.558 311.327,288.694 299.846,292.710 301.387 C 293.019 301.506,293.481 301.470,293.736 301.309 C 293.991 301.147,295.820 301.066,297.800 301.128 C 300.006 301.197,302.225 301.020,303.530 300.671 C 304.702 300.358,306.547 300.149,307.630 300.208 C 308.714 300.266,309.600 300.198,309.600 300.057 C 309.600 299.778,310.352 299.747,320.800 299.603 C 324.650 299.549,328.070 299.612,328.400 299.742 C 328.730 299.873,329.900 300.174,331.000 300.412 C 334.387 301.144,336.944 304.020,343.616 314.600 C 351.560 327.199,353.122 330.703,355.829 342.000 C 359.507 357.345,359.360 358.010,350.382 366.800 C 348.471 368.670,345.823 371.550,344.498 373.200 C 343.172 374.850,340.164 378.450,337.813 381.200 C 334.057 385.595,327.605 393.813,324.278 398.440 L 323.156 400.000 332.978 400.000 C 342.114 400.000,342.800 399.950,342.800 399.291 C 342.800 398.525,346.888 390.971,348.769 388.260 C 349.402 387.347,351.935 384.350,354.398 381.600 C 356.861 378.850,360.074 375.264,361.538 373.631 C 372.302 361.627,373.200 360.025,373.200 352.840 C 373.200 346.422,373.112 346.532,376.143 349.184 C 378.829 351.535,381.775 352.588,390.762 354.410 C 398.567 355.992,400.000 355.994,400.000 354.424 C 400.000 352.943,399.790 352.823,396.716 352.549 C 393.886 352.297,385.103 350.351,381.287 349.130 C 376.225 347.511,375.264 345.829,368.990 327.600 C 365.905 318.640,364.927 316.053,364.271 315.119 C 362.193 312.162,357.042 304.761,356.114 303.400 C 355.514 302.520,353.958 300.641,352.656 299.225 C 348.685 294.908,348.000 293.553,348.002 290.022 C 348.006 284.993,347.949 285.114,355.000 275.200 C 366.912 258.453,366.774 258.697,369.591 249.400 C 375.970 228.347,375.690 228.944,380.287 226.644 C 382.777 225.398,384.687 225.322,386.771 226.385 C 387.617 226.817,389.519 227.363,390.996 227.599 C 392.474 227.835,394.789 228.289,396.141 228.608 C 399.778 229.466,400.000 229.424,400.000 227.869 C 400.000 226.541,399.994 226.537,397.300 226.049 C 395.815 225.780,392.327 225.029,389.548 224.380 C 383.833 223.045,384.327 223.087,382.200 223.761 M176.281 226.441 C 171.787 231.111,139.893 278.613,138.467 282.760 C 137.108 286.713,139.204 299.810,141.639 302.583 C 142.913 304.034,143.678 305.034,155.440 320.611 C 168.867 338.396,174.002 344.316,176.698 345.120 C 178.787 345.743,197.978 348.441,213.000 350.223 C 223.895 351.516,233.003 350.505,235.648 347.709 C 238.467 344.728,253.447 318.603,263.161 299.725 C 265.405 295.363,265.763 292.013,265.454 278.256 L 265.222 267.912 262.268 262.256 C 255.275 248.864,243.765 229.705,241.983 228.488 C 237.873 225.683,230.813 225.257,206.087 226.318 C 196.142 226.745,195.882 226.736,190.487 225.772 C 187.469 225.232,183.507 224.676,181.681 224.535 L 178.362 224.279 176.281 226.441 M180.720 227.372 C 181.314 227.687,183.777 229.937,186.193 232.372 L 190.586 236.800 193.665 236.800 C 197.592 236.800,198.000 236.444,198.000 233.016 C 198.000 228.741,198.083 228.697,206.848 228.350 C 228.685 227.485,232.471 227.464,235.400 228.193 C 242.132 229.867,242.289 230.554,236.999 235.222 C 231.686 239.910,231.729 239.567,235.534 247.000 C 238.048 251.909,238.487 252.502,243.398 257.606 C 254.342 268.980,255.209 271.138,253.363 282.400 C 253.020 284.490,252.611 290.070,252.453 294.800 C 252.089 305.729,251.318 307.171,242.560 313.303 C 237.040 317.167,235.501 319.379,233.242 326.699 C 231.109 333.611,229.308 334.897,223.335 333.774 C 218.233 332.815,213.257 333.174,201.400 335.356 C 184.331 338.498,184.788 338.668,178.425 326.800 C 174.548 319.568,173.725 318.559,168.600 314.745 C 166.180 312.944,162.074 309.745,159.476 307.635 C 152.995 302.373,153.049 302.401,148.550 301.975 C 142.763 301.428,141.972 300.678,141.027 294.838 C 139.696 286.606,139.737 284.533,141.293 281.565 C 144.290 275.843,174.167 231.596,177.238 228.330 C 178.833 226.633,179.157 226.544,180.720 227.372 M336.700 275.876 C 336.315 275.976,336.000 276.326,336.000 276.653 C 336.000 276.980,335.824 277.138,335.609 277.006 C 333.924 275.964,331.643 281.163,332.643 283.767 C 333.278 285.422,334.800 284.481,334.800 282.433 C 334.800 279.425,335.948 278.105,338.748 277.894 C 339.550 277.833,340.006 277.200,339.247 277.200 C 339.052 277.200,338.799 276.840,338.684 276.400 C 338.479 275.614,338.092 275.512,336.700 275.876 M103.994 292.125 C 103.880 292.247,98.570 292.989,92.194 293.776 C 85.817 294.562,79.203 295.381,77.496 295.595 C 73.792 296.059,72.482 296.673,70.895 298.688 C 69.038 301.047,64.996 307.334,62.487 311.768 C 59.915 316.311,56.952 319.645,50.191 325.602 L 45.782 329.487 42.041 337.357 C 38.302 345.222,38.300 345.229,38.567 347.590 C 38.926 350.762,40.602 356.433,41.990 359.172 C 43.076 361.315,44.013 362.471,51.668 371.114 C 61.069 381.730,67.600 393.348,67.600 399.457 C 67.600 399.874,68.435 400.000,71.200 400.000 C 75.253 400.000,75.159 400.082,73.793 397.752 C 72.789 396.039,71.879 393.927,66.920 381.800 C 65.480 378.280,62.280 371.350,59.808 366.400 C 57.336 361.450,55.087 356.680,54.810 355.800 C 54.533 354.920,53.722 352.850,53.009 351.200 C 50.994 346.540,50.838 339.611,52.665 335.920 C 52.959 335.326,53.200 334.504,53.200 334.095 C 53.200 333.303,55.147 331.200,55.880 331.200 C 56.454 331.200,58.658 328.677,58.985 327.646 C 59.126 327.203,59.855 326.460,60.606 325.997 C 62.836 324.618,67.120 319.900,69.567 316.126 C 70.825 314.187,72.147 312.361,72.505 312.069 C 72.863 311.777,73.447 310.664,73.801 309.596 C 74.204 308.385,74.908 307.304,75.670 306.726 C 76.343 306.217,77.501 305.288,78.243 304.662 C 79.257 303.807,80.217 303.446,82.096 303.211 C 83.473 303.039,85.276 302.615,86.103 302.269 C 86.929 301.922,88.118 301.704,88.744 301.783 C 89.370 301.862,91.124 301.661,92.641 301.335 C 94.159 301.010,97.470 300.571,100.000 300.360 C 111.591 299.394,110.125 299.334,113.114 300.897 C 114.592 301.670,118.230 303.161,121.200 304.211 C 131.835 307.970,131.461 307.620,134.394 316.539 C 137.102 324.774,138.030 326.816,140.602 330.200 C 145.008 335.997,149.083 344.438,151.541 352.855 C 154.468 362.880,154.387 363.301,148.488 368.758 C 139.026 377.511,128.428 390.272,126.386 395.372 C 124.353 400.449,123.324 400.000,137.000 400.000 C 146.172 400.000,148.800 399.889,148.802 399.500 C 148.803 399.225,150.223 396.022,151.958 392.382 C 157.710 380.314,165.933 361.822,166.205 360.341 C 166.554 358.445,165.711 348.834,164.947 346.000 C 164.227 343.330,159.809 335.289,150.444 319.601 L 143.400 307.802 138.200 302.589 C 132.699 297.073,130.134 295.333,126.200 294.447 C 120.203 293.096,104.611 291.466,103.994 292.125 M184.600 353.190 C 176.837 354.873,177.486 354.224,166.993 370.800 C 164.835 374.210,161.863 378.802,160.389 381.004 C 155.375 388.500,150.496 400.000,152.330 400.000 C 153.437 400.000,154.064 399.054,156.175 394.200 C 158.893 387.947,160.899 384.317,166.024 376.375 C 168.500 372.539,171.424 367.960,172.524 366.200 C 178.484 356.655,178.454 356.682,184.563 355.420 C 192.567 353.767,196.712 355.039,196.218 358.996 C 195.974 360.951,196.046 361.199,197.364 362.925 C 198.137 363.939,199.230 365.675,199.792 366.784 C 200.650 368.478,200.991 368.800,201.927 368.800 C 203.755 368.800,204.000 368.202,204.000 363.734 C 204.000 358.913,203.933 358.992,208.540 358.408 C 210.169 358.201,214.190 357.577,217.477 357.021 C 226.675 355.464,234.917 355.194,236.208 356.407 C 237.644 357.757,237.463 358.990,235.165 363.515 C 232.633 368.501,232.536 368.266,239.332 373.554 C 242.782 376.239,244.011 378.478,247.588 388.600 C 249.130 392.965,249.795 394.448,251.200 396.665 C 251.917 397.795,252.311 398.852,252.174 399.281 C 251.963 399.947,252.316 400.000,256.994 400.000 L 262.042 400.000 260.199 396.619 C 258.560 393.613,258.175 392.380,256.733 385.519 C 254.202 373.478,252.366 370.076,242.794 359.685 C 235.868 352.166,235.038 352.010,217.400 354.895 C 206.057 356.751,202.955 356.681,197.600 354.450 C 192.453 352.306,189.842 352.053,184.600 353.190 M-0.000 363.788 C -0.000 369.510,0.012 369.588,0.924 369.817 C 2.776 370.282,3.367 370.250,6.356 369.526 C 9.290 368.814,12.045 368.849,13.000 369.609 C 13.220 369.784,14.840 370.393,16.600 370.962 C 19.738 371.978,27.656 375.765,32.800 378.711 C 34.829 379.873,35.620 380.609,36.400 382.061 C 36.950 383.085,38.231 385.159,39.248 386.669 C 40.264 388.179,41.681 390.581,42.397 392.007 C 43.113 393.433,44.417 395.815,45.295 397.300 L 46.891 400.000 55.028 400.000 L 63.164 400.000 62.172 397.365 C 60.651 393.322,59.707 391.673,56.926 388.200 C 55.517 386.440,51.557 380.986,48.126 376.081 C 36.813 359.907,35.770 359.426,10.200 358.602 C 6.240 358.474,2.325 358.285,1.500 358.180 L -0.000 357.991 -0.000 363.788 M392.000 358.408 C 377.358 358.958,376.987 359.218,360.040 380.800 C 354.069 388.405,351.896 391.768,349.125 397.699 L 348.049 400.000 354.825 400.000 L 361.602 400.000 363.232 398.300 C 364.128 397.365,365.549 395.610,366.390 394.400 C 369.152 390.424,374.800 384.993,374.800 386.313 C 374.800 387.035,369.703 392.889,367.759 394.400 C 366.328 395.512,365.306 397.034,364.795 398.817 L 364.456 400.000 382.228 400.000 L 400.000 400.000 400.000 386.447 C 400.000 370.640,400.605 372.104,394.529 373.196 C 389.174 374.158,386.047 375.673,382.600 378.977 C 378.435 382.969,375.200 385.730,375.200 385.291 C 375.200 384.705,379.855 378.903,382.377 376.345 C 384.797 373.890,384.441 374.034,393.200 371.979 C 400.706 370.218,400.000 371.048,400.000 363.986 C 400.000 360.694,399.865 358.029,399.700 358.065 C 399.535 358.101,396.070 358.256,392.000 358.408 M5.485 370.686 C 3.566 370.960,1.547 371.479,0.998 371.838 L 0.000 372.492 0.000 386.246 L 0.000 400.000 22.200 400.000 C 43.108 400.000,44.400 399.959,44.400 399.297 C 44.400 397.706,43.537 395.825,41.560 393.107 C 40.410 391.526,38.882 388.875,38.164 387.216 C 36.313 382.937,33.418 380.389,27.223 377.588 C 24.680 376.438,21.610 374.911,20.400 374.195 C 14.165 370.503,11.368 369.845,5.485 370.686 " stroke="none" fill="#9c755e" fill-rule="evenodd"></path><path id="path1" d="M63.600 0.857 C 63.600 1.328,63.953 2.903,64.384 4.357 C 65.955 9.652,67.603 17.884,67.348 19.160 C 66.955 21.125,63.236 22.952,62.396 21.594 C 62.257 21.368,61.256 21.104,60.171 21.007 C 59.087 20.910,57.159 20.673,55.887 20.481 C 52.833 20.018,52.541 20.298,52.023 24.200 C 51.394 28.926,49.953 31.460,45.539 35.600 C 36.211 44.347,30.765 50.254,29.312 53.200 C 26.867 58.157,25.485 61.728,24.771 64.932 C 24.338 66.874,23.628 69.162,23.192 70.016 C 22.756 70.870,22.400 71.775,22.400 72.027 C 22.400 74.299,16.949 80.000,14.777 80.000 C 13.377 80.000,6.105 81.105,4.555 81.553 C 3.870 81.751,2.565 81.857,1.655 81.789 L -0.000 81.666 0.000 91.386 L 0.000 101.106 2.900 101.378 C 6.035 101.672,6.621 101.597,18.582 99.386 L 26.563 97.910 29.782 98.714 C 39.655 101.179,39.726 101.254,53.378 123.600 C 68.071 147.651,68.952 149.534,68.728 156.389 L 68.577 161.000 65.821 165.600 C 47.555 196.091,39.825 208.463,37.927 210.247 C 36.344 211.734,33.279 212.918,21.000 216.782 C 5.989 221.506,5.287 221.686,2.500 221.515 L 0.000 221.362 0.000 224.081 C 0.000 225.576,0.135 226.797,0.300 226.793 C 1.312 226.768,9.757 225.431,16.555 224.218 C 20.931 223.438,25.616 222.800,26.967 222.800 C 33.337 222.800,41.582 229.489,50.329 241.755 C 53.796 246.617,54.154 247.245,57.314 254.000 C 58.497 256.530,61.500 262.200,63.988 266.600 C 75.355 286.711,75.549 287.710,69.160 293.267 C 67.820 294.433,65.121 297.393,63.163 299.846 C 59.245 304.754,56.028 307.928,51.548 311.306 C 44.142 316.889,36.085 330.489,34.428 340.200 C 32.600 350.921,33.428 350.445,11.800 353.185 C 3.223 354.271,0.000 355.274,-0.000 356.856 C -0.000 358.248,0.202 358.283,10.000 358.595 C 35.769 359.415,36.800 359.888,48.126 376.081 C 51.557 380.986,55.517 386.440,56.925 388.200 C 59.769 391.755,60.444 392.922,62.016 397.000 L 63.096 399.800 65.348 399.920 C 68.078 400.065,68.037 400.355,66.156 394.157 C 63.848 386.553,60.195 380.743,51.668 371.114 C 44.013 362.471,43.076 361.315,41.990 359.172 C 40.602 356.433,38.926 350.762,38.567 347.590 C 38.300 345.229,38.302 345.222,42.041 337.357 L 45.782 329.487 50.191 325.602 C 56.952 319.645,59.915 316.311,62.487 311.768 C 64.996 307.334,69.038 301.047,70.895 298.688 C 72.482 296.673,73.792 296.059,77.496 295.595 C 79.203 295.381,85.820 294.529,92.200 293.703 C 105.710 291.953,109.811 291.870,118.600 293.169 C 129.947 294.847,130.967 295.337,138.200 302.589 L 143.400 307.802 150.444 319.601 C 159.809 335.289,164.227 343.330,164.947 346.000 C 165.711 348.834,166.554 358.445,166.205 360.341 C 165.933 361.822,157.710 380.314,151.958 392.382 C 148.337 399.980,148.332 400.000,150.144 400.000 C 151.440 400.000,151.517 399.911,152.322 397.457 C 153.981 392.404,157.027 386.125,160.009 381.608 C 161.683 379.074,165.284 373.490,168.011 369.200 C 177.030 355.014,177.052 354.990,182.915 353.562 C 189.113 352.051,192.508 352.248,197.600 354.414 C 202.945 356.687,205.994 356.761,217.400 354.895 C 235.038 352.010,235.868 352.166,242.794 359.685 C 252.366 370.076,254.202 373.478,256.733 385.519 C 258.175 392.380,258.560 393.613,260.199 396.619 L 262.042 400.000 265.821 400.000 C 267.899 400.000,269.600 399.852,269.600 399.671 C 269.600 398.398,267.433 388.837,266.918 387.839 C 265.820 385.710,260.221 378.352,254.252 371.194 C 247.216 362.756,246.261 361.211,244.996 356.222 C 242.972 348.243,243.563 346.935,255.409 333.200 C 265.701 321.266,264.604 323.006,269.955 310.113 C 276.162 295.157,276.556 294.546,281.651 291.974 C 282.980 291.303,284.837 290.045,285.778 289.177 C 288.480 286.687,290.385 286.909,295.427 290.301 C 300.341 293.608,305.337 294.451,313.712 293.386 C 329.029 291.439,338.682 292.762,344.061 297.545 C 347.022 300.177,355.540 313.338,363.385 327.400 C 368.901 337.288,369.733 338.353,368.798 334.322 C 367.015 326.638,364.250 319.986,360.841 315.171 C 344.976 292.774,345.809 294.256,346.077 288.913 C 346.312 284.234,346.815 283.218,353.484 273.943 C 365.043 257.866,365.109 257.745,368.381 246.595 C 373.714 228.419,374.141 227.563,379.164 225.018 C 382.700 223.227,384.005 223.076,387.899 224.008 C 392.450 225.097,398.736 226.400,399.444 226.400 C 400.527 226.400,400.197 221.256,399.100 221.029 C 392.172 219.595,376.465 215.416,375.546 214.761 C 371.772 212.074,360.369 193.817,346.963 169.000 C 345.309 165.938,344.920 163.717,344.572 155.356 C 344.191 146.210,342.623 149.186,362.937 120.496 C 378.773 98.130,378.586 98.260,392.465 100.121 C 395.251 100.494,398.086 100.800,398.765 100.800 L 400.000 100.800 400.000 91.151 C 400.000 82.396,399.941 81.551,399.367 82.027 C 398.951 82.373,397.135 82.604,394.067 82.702 C 388.339 82.886,388.400 82.866,388.400 84.537 C 388.400 85.286,387.954 86.697,387.409 87.672 C 386.865 88.646,386.354 89.867,386.275 90.385 C 386.076 91.689,384.566 92.800,382.992 92.800 C 379.447 92.800,365.355 77.503,359.592 67.400 C 358.211 64.980,356.451 61.920,355.681 60.600 C 354.910 59.280,353.617 57.030,352.808 55.600 C 351.998 54.170,349.986 50.660,348.336 47.800 C 336.518 27.316,336.198 24.953,343.223 9.995 C 345.214 5.756,346.945 1.773,347.071 1.144 L 347.300 0.000 344.652 0.000 L 342.004 0.000 338.563 6.900 C 331.813 20.434,330.641 20.894,301.549 21.414 C 283.218 21.743,283.935 22.011,274.585 11.318 C 271.650 7.961,271.608 7.873,270.009 1.700 L 269.569 0.000 266.385 0.000 C 264.633 0.000,263.200 0.102,263.200 0.226 C 263.200 0.708,264.246 2.369,267.307 6.748 C 271.670 12.987,272.141 14.150,272.112 18.600 C 272.057 26.876,271.121 30.622,268.012 35.000 C 266.763 36.760,263.566 41.260,260.908 45.000 C 258.250 48.740,255.527 52.700,254.857 53.800 C 253.789 55.552,245.375 76.297,243.989 80.596 C 243.302 82.728,240.029 85.864,236.764 87.519 C 234.041 88.899,231.482 89.365,220.800 90.425 C 218.270 90.677,215.367 90.970,214.348 91.076 C 212.121 91.310,210.727 90.678,207.600 88.016 C 203.257 84.320,201.964 84.082,194.573 85.626 C 188.396 86.916,178.478 86.937,175.921 85.666 C 167.884 81.670,158.108 67.790,146.041 43.241 L 143.400 37.869 143.266 33.576 C 142.941 23.191,145.025 14.354,151.068 0.500 C 151.221 0.149,150.825 -0.000,149.736 -0.000 L 148.187 -0.000 145.255 5.900 C 141.218 14.021,136.962 21.746,135.695 23.252 C 133.248 26.160,131.670 26.202,108.262 23.979 C 104.227 23.595,103.558 23.641,98.662 24.631 C 89.114 26.561,81.190 24.472,75.520 18.529 C 73.853 16.783,68.400 3.088,68.400 0.649 C 68.400 0.122,67.948 0.000,66.000 0.000 C 63.814 0.000,63.600 0.076,63.600 0.857 M287.911 25.195 C 290.709 25.916,292.544 26.000,307.422 26.095 L 323.843 26.200 326.931 27.726 C 332.521 30.490,333.339 31.607,340.157 45.800 C 343.433 52.620,347.997 61.838,350.298 66.283 C 354.668 74.725,354.312 74.224,364.091 85.755 C 368.242 90.651,369.008 92.222,368.456 94.706 C 368.224 95.748,367.747 98.813,367.395 101.518 C 366.650 107.249,366.170 108.488,362.716 113.600 C 355.661 124.041,354.184 126.274,350.408 132.200 C 342.070 145.288,338.611 149.566,335.711 150.381 C 331.821 151.473,304.245 156.642,300.200 157.037 C 295.156 157.530,278.522 152.493,274.871 149.368 C 271.714 146.665,242.617 100.448,242.112 97.332 C 241.697 94.780,244.151 85.346,246.151 81.800 C 247.544 79.331,267.447 45.369,271.563 38.437 C 276.712 29.767,280.172 25.685,283.129 24.792 C 284.650 24.333,284.517 24.322,287.911 25.195 M82.959 30.269 C 90.639 33.593,90.951 33.586,106.800 29.713 C 124.566 25.371,134.516 30.614,145.676 50.200 C 150.253 58.233,162.638 83.696,163.349 86.536 C 164.433 90.865,156.878 111.873,150.020 123.600 C 148.540 126.130,145.554 131.260,143.383 135.000 C 135.694 148.246,134.241 150.241,131.133 151.828 C 125.248 154.830,106.502 161.174,101.400 161.889 C 98.801 162.253,77.917 150.715,73.475 146.461 C 72.636 145.657,71.567 144.370,71.100 143.600 C 70.633 142.830,64.526 133.586,57.529 123.057 C 42.004 99.696,41.456 98.619,40.439 89.527 C 39.877 84.510,39.983 84.241,51.983 60.200 C 67.400 29.312,66.451 30.798,71.952 28.923 C 75.934 27.566,77.022 27.699,82.959 30.269 M55.757 29.433 C 56.188 30.556,56.016 31.600,55.400 31.600 C 54.981 31.600,54.800 31.178,54.800 30.200 C 54.800 28.751,55.332 28.325,55.757 29.433 M33.900 53.195 C 34.999 53.199,35.200 53.346,35.200 54.146 C 35.200 55.321,36.628 57.198,37.529 57.206 C 37.948 57.210,38.035 57.323,37.761 57.506 C 37.519 57.668,37.203 59.060,37.058 60.600 C 36.682 64.612,36.467 65.200,35.376 65.200 C 34.568 65.200,34.430 64.977,34.323 63.500 C 34.228 62.187,33.995 61.710,33.300 61.405 C 32.805 61.188,32.400 60.873,32.400 60.705 C 32.400 60.537,31.884 60.400,31.252 60.400 C 30.237 60.400,30.076 60.227,29.857 58.900 C 29.241 55.177,30.097 52.576,31.800 52.993 C 32.240 53.101,33.185 53.192,33.900 53.195 M26.372 78.800 C 26.760 78.800,27.273 78.395,27.512 77.900 C 27.938 77.016,27.946 77.020,27.973 78.100 C 27.999 79.141,27.904 79.200,26.200 79.200 C 24.581 79.200,24.400 79.106,24.400 78.267 C 24.400 76.885,24.934 76.601,25.325 77.775 C 25.519 78.358,25.971 78.800,26.372 78.800 M4.000 85.176 C 4.000 85.823,3.820 86.464,3.600 86.600 C 3.362 86.747,3.200 86.271,3.200 85.424 C 3.200 84.641,3.380 84.000,3.600 84.000 C 3.820 84.000,4.000 84.529,4.000 85.176 M16.800 87.200 L 16.800 88.400 14.000 88.400 C 10.765 88.400,9.527 86.658,12.500 86.289 C 16.336 85.813,16.800 85.912,16.800 87.200 M202.192 92.447 C 203.068 92.690,204.567 93.427,205.523 94.085 C 212.616 98.964,217.018 99.651,228.065 97.599 C 238.693 95.626,239.003 95.849,247.493 111.600 C 255.275 126.039,257.368 129.711,260.603 134.600 C 266.399 143.358,272.944 155.019,273.431 157.454 C 273.702 158.808,270.458 170.589,266.562 182.400 C 264.078 189.929,263.146 191.533,256.770 199.260 C 248.602 209.158,247.572 209.944,237.523 213.948 C 225.162 218.874,225.724 218.797,209.336 217.788 C 178.722 215.903,180.771 216.383,174.252 209.580 C 165.364 200.304,160.287 193.690,155.689 185.394 C 153.740 181.877,150.286 175.670,148.013 171.600 C 141.470 159.885,141.695 160.846,143.838 153.757 C 145.419 148.530,147.491 144.326,153.285 134.600 C 159.327 124.458,159.794 123.317,162.219 112.800 C 165.128 100.187,167.197 96.725,173.919 93.230 C 176.218 92.034,198.485 91.417,202.192 92.447 M330.909 161.513 C 338.439 163.543,341.678 167.442,355.907 191.600 C 357.786 194.790,359.994 198.480,360.813 199.800 C 369.558 213.882,371.160 217.374,371.180 222.400 C 371.209 229.547,368.888 232.430,363.003 232.557 L 361.006 232.600 359.368 235.880 C 358.467 237.685,357.530 239.402,357.286 239.696 C 357.042 239.991,356.224 241.665,355.470 243.416 C 354.715 245.167,352.884 248.580,351.399 251.000 C 349.915 253.420,348.228 256.188,347.650 257.152 C 347.073 258.115,346.188 259.528,345.685 260.291 C 345.156 261.095,344.869 261.986,345.003 262.409 C 345.150 262.872,344.971 263.294,344.518 263.558 C 344.123 263.788,344.025 263.981,344.300 263.988 C 344.575 263.995,344.800 264.360,344.800 264.800 C 344.800 265.240,344.980 265.600,345.200 265.600 C 345.863 265.600,345.688 270.369,345.000 271.057 C 344.670 271.387,344.400 272.094,344.400 272.629 C 344.400 273.701,343.707 273.944,343.345 273.000 C 343.218 272.670,342.885 272.400,342.604 272.400 C 341.728 272.400,341.205 268.978,341.959 268.180 C 342.784 267.306,342.943 264.295,342.141 264.725 C 340.619 265.540,339.200 267.187,339.200 268.138 C 339.200 269.019,338.497 269.496,336.796 269.767 C 336.584 269.801,334.582 271.416,330.044 275.211 C 325.810 278.752,324.562 279.575,321.905 280.581 C 319.511 281.488,318.821 282.427,319.980 283.200 C 320.390 283.473,321.200 285.050,321.200 285.574 C 321.200 286.217,318.699 286.085,317.706 285.389 C 317.201 285.036,316.929 284.530,317.060 284.189 C 317.223 283.763,316.997 283.600,316.243 283.600 C 315.669 283.600,315.200 283.420,315.200 283.200 C 315.200 282.980,315.718 282.800,316.351 282.800 C 317.483 282.800,318.744 281.857,318.119 281.477 C 317.704 281.224,290.108 281.350,289.891 281.605 C 289.800 281.712,289.214 282.825,288.590 284.079 C 284.246 292.796,281.544 289.709,263.313 255.200 C 257.209 243.647,253.945 235.970,251.455 227.318 C 249.106 219.153,252.233 211.279,261.981 200.810 C 264.752 197.834,267.898 194.410,268.973 193.200 C 271.247 190.639,274.161 184.806,277.238 176.653 C 279.680 170.181,280.057 169.668,284.697 166.499 C 291.049 162.161,292.477 161.509,296.345 161.176 C 301.274 160.752,329.091 161.023,330.909 161.513 M135.486 162.383 C 136.776 162.968,137.433 163.636,138.286 165.226 C 138.899 166.368,141.095 170.115,143.166 173.552 C 145.237 176.988,147.522 180.790,148.243 182.000 C 148.965 183.210,150.132 185.100,150.836 186.200 C 163.021 205.225,169.600 216.390,169.600 218.039 C 169.600 219.690,168.061 221.551,166.272 222.065 C 162.851 223.047,161.642 224.282,157.717 230.800 C 154.815 235.620,147.550 242.177,142.200 244.806 C 135.348 248.173,131.672 252.286,131.616 256.649 C 131.607 257.336,131.248 258.694,130.818 259.666 C 130.388 260.638,129.925 262.236,129.790 263.217 C 129.553 264.934,128.156 269.864,126.851 273.588 C 125.827 276.509,123.965 278.003,119.396 279.572 L 115.400 280.945 107.601 280.917 L 99.802 280.890 98.263 282.108 C 97.417 282.779,96.067 283.770,95.262 284.312 C 94.458 284.854,93.664 285.531,93.498 285.817 C 92.992 286.687,89.310 287.710,87.743 287.416 C 85.325 286.962,76.833 277.620,71.004 269.000 C 39.733 222.758,42.111 227.209,44.373 219.169 C 46.903 210.181,53.577 195.414,62.880 178.225 C 68.911 167.081,69.676 166.261,75.911 164.250 C 84.099 161.609,84.166 161.606,91.875 163.519 C 95.574 164.437,100.400 165.489,102.600 165.858 L 106.600 166.529 115.400 164.614 C 120.240 163.560,125.190 162.466,126.400 162.183 C 129.738 161.400,133.503 161.483,135.486 162.383 M190.487 225.772 C 195.882 226.736,196.142 226.745,206.087 226.318 C 230.813 225.257,237.873 225.683,241.983 228.488 C 243.765 229.705,255.275 248.864,262.268 262.256 L 265.222 267.912 265.454 278.256 C 265.763 292.013,265.405 295.363,263.161 299.725 C 253.447 318.603,238.467 344.728,235.648 347.709 C 233.003 350.505,223.895 351.516,213.000 350.223 C 197.978 348.441,178.787 345.743,176.698 345.120 C 174.002 344.316,168.867 338.396,155.440 320.611 C 143.678 305.034,142.913 304.034,141.639 302.583 C 139.204 299.810,137.108 286.713,138.467 282.760 C 139.893 278.613,171.787 231.111,176.281 226.441 L 178.362 224.279 181.681 224.535 C 183.507 224.676,187.469 225.232,190.487 225.772 M338.684 276.400 C 338.799 276.840,339.052 277.200,339.247 277.200 C 340.006 277.200,339.550 277.833,338.748 277.894 C 335.948 278.105,334.800 279.425,334.800 282.433 C 334.800 284.481,333.278 285.422,332.643 283.767 C 331.643 281.163,333.924 275.964,335.609 277.006 C 335.824 277.138,336.000 276.980,336.000 276.653 C 336.000 276.099,336.658 275.757,337.937 275.646 C 338.233 275.621,338.569 275.960,338.684 276.400 M373.200 352.840 C 373.200 360.025,372.302 361.627,361.538 373.631 C 348.106 388.611,348.907 387.599,345.209 394.250 C 342.086 399.865,342.090 400.000,345.375 400.000 L 347.949 400.000 350.416 395.104 C 353.329 389.322,353.004 389.802,360.358 380.400 C 376.672 359.544,377.568 358.910,391.200 358.543 C 399.993 358.307,400.000 358.305,400.000 356.792 C 400.000 355.657,399.919 355.600,398.300 355.597 C 392.056 355.584,379.207 351.865,376.143 349.184 C 373.112 346.532,373.200 346.422,373.200 352.840 " stroke="none" fill="#453329" fill-rule="evenodd"></path><path id="path2" d="M46.476 0.647 C 46.832 1.003,47.321 1.173,47.562 1.024 C 48.356 0.533,48.019 0.000,46.914 0.000 C 45.914 0.000,45.879 0.051,46.476 0.647 M76.000 0.783 C 76.000 1.777,78.994 7.468,81.829 11.862 C 84.838 16.528,84.861 16.535,93.202 15.547 C 96.831 15.117,102.140 14.607,105.000 14.412 C 113.827 13.812,117.864 12.406,120.401 9.046 C 121.654 7.385,124.400 1.305,124.400 0.188 C 124.400 0.085,113.510 0.000,100.200 0.000 C 76.443 0.000,76.000 0.014,76.000 0.783 M284.129 1.437 C 284.699 4.950,287.436 6.407,298.699 9.194 C 307.103 11.273,309.511 11.085,314.145 7.986 C 316.682 6.289,321.600 1.227,321.600 0.312 C 321.600 0.141,313.116 0.000,302.748 0.000 L 283.895 0.000 284.129 1.437 M360.548 0.900 C 360.681 1.395,360.792 1.959,360.795 2.154 C 360.798 2.349,361.160 2.050,361.600 1.491 C 362.639 0.170,362.610 -0.000,361.353 0.000 C 360.463 0.000,360.343 0.135,360.548 0.900 M280.214 29.700 C 277.020 32.992,272.609 40.244,250.021 79.345 C 247.258 84.128,245.580 88.323,244.669 92.727 C 243.607 97.858,244.453 98.785,250.211 98.794 C 255.048 98.802,254.761 98.501,260.414 109.498 C 270.210 128.552,271.071 129.841,275.531 132.135 C 279.146 133.995,292.766 139.830,296.148 140.968 C 298.626 141.801,303.864 140.954,313.000 138.241 C 328.540 133.625,329.608 133.085,337.024 126.094 C 340.229 123.072,344.415 119.279,346.326 117.665 C 356.063 109.437,356.174 109.234,355.811 100.288 C 355.480 92.149,354.890 89.164,352.592 84.023 C 351.653 81.921,349.947 78.040,348.803 75.400 C 338.294 51.160,337.856 50.278,334.626 46.850 C 332.169 44.242,325.258 38.229,322.681 36.456 C 320.440 34.914,320.087 33.847,321.013 31.421 C 322.275 28.117,321.217 27.911,305.200 28.332 L 295.000 28.600 294.984 30.524 C 294.948 34.968,289.189 34.332,286.811 29.621 C 284.907 25.851,283.937 25.862,280.214 29.700 M71.439 34.642 C 71.304 34.994,70.959 35.193,70.672 35.083 C 70.296 34.939,70.198 35.207,70.321 36.041 C 70.414 36.679,70.546 37.200,70.613 37.200 C 70.792 37.200,72.400 34.549,72.400 34.253 C 72.400 33.732,71.676 34.025,71.439 34.642 M376.797 65.595 C 377.239 66.420,378.781 67.010,379.683 66.700 C 379.990 66.595,379.633 66.174,378.800 65.663 C 376.978 64.544,376.221 64.518,376.797 65.595 M184.646 97.008 C 182.472 97.319,179.322 97.921,177.646 98.344 C 175.971 98.767,173.958 99.224,173.174 99.361 C 169.005 100.085,167.803 103.327,167.911 113.562 C 168.002 122.160,167.736 124.191,166.358 125.436 C 165.894 125.856,165.057 127.100,164.500 128.200 C 163.943 129.300,163.037 130.790,162.488 131.510 C 161.939 132.231,160.929 133.696,160.245 134.766 C 158.700 137.180,155.472 142.070,154.016 144.200 C 152.351 146.637,151.705 149.064,151.162 154.937 L 150.666 160.304 152.072 163.252 C 153.895 167.071,162.210 179.238,171.079 191.061 C 179.544 202.346,188.979 205.470,212.000 204.607 C 229.152 203.964,232.573 203.233,238.200 199.009 C 246.448 192.817,249.331 189.201,252.778 180.727 C 254.060 177.577,256.417 172.120,258.016 168.600 C 262.059 159.704,262.059 159.706,258.381 153.294 C 250.944 140.326,249.587 138.611,244.881 136.239 C 240.738 134.151,240.938 134.513,237.558 123.000 C 232.153 104.586,233.195 105.673,221.600 106.346 C 217.530 106.582,213.433 106.890,212.496 107.030 C 209.786 107.435,209.142 107.061,204.546 102.401 C 198.839 96.613,194.884 95.541,184.646 97.008 M327.644 171.777 C 328.372 172.506,330.800 173.899,330.800 173.588 C 330.800 172.879,329.213 171.600,328.333 171.600 C 327.857 171.600,327.546 171.680,327.644 171.777 M114.352 175.058 C 113.864 175.646,113.911 175.684,114.803 175.413 C 116.208 174.986,116.744 174.400,115.729 174.400 C 115.272 174.400,114.652 174.696,114.352 175.058 M128.000 174.800 C 128.330 175.013,128.870 175.188,129.200 175.188 C 129.733 175.188,129.733 175.145,129.200 174.800 C 128.870 174.587,128.330 174.412,128.000 174.412 C 127.467 174.412,127.467 174.455,128.000 174.800 M285.047 185.276 C 283.788 188.676,281.693 195.403,281.843 195.564 C 282.656 196.442,284.260 192.629,285.417 187.068 C 286.156 183.516,285.992 182.722,285.047 185.276 M177.238 228.330 C 174.167 231.596,144.290 275.843,141.293 281.565 C 139.737 284.533,139.696 286.606,141.027 294.838 C 141.972 300.678,142.763 301.428,148.550 301.975 C 153.049 302.401,152.995 302.373,159.476 307.635 C 162.074 309.745,166.180 312.944,168.600 314.745 C 173.725 318.559,174.548 319.568,178.425 326.800 C 184.788 338.668,184.331 338.498,201.400 335.356 C 213.257 333.174,218.233 332.815,223.335 333.774 C 229.308 334.897,231.109 333.611,233.242 326.699 C 235.501 319.379,237.040 317.167,242.560 313.303 C 251.318 307.171,252.089 305.729,252.453 294.800 C 252.611 290.070,253.020 284.490,253.363 282.400 C 255.209 271.138,254.342 268.980,243.398 257.606 C 238.487 252.502,238.048 251.909,235.534 247.000 C 231.729 239.567,231.686 239.910,236.999 235.222 C 242.289 230.554,242.132 229.867,235.400 228.193 C 232.471 227.464,228.685 227.485,206.848 228.350 C 198.083 228.697,198.000 228.741,198.000 233.016 C 198.000 236.444,197.592 236.800,193.665 236.800 L 190.586 236.800 186.193 232.372 C 180.087 226.217,179.481 225.944,177.238 228.330 M374.000 245.200 C 374.000 245.930,374.208 246.400,374.531 246.400 C 374.893 246.400,375.006 246.019,374.885 245.200 C 374.788 244.540,374.550 244.000,374.355 244.000 C 374.160 244.000,374.000 244.540,374.000 245.200 M373.200 246.776 C 373.200 247.229,373.380 247.600,373.600 247.600 C 373.820 247.600,374.000 247.341,374.000 247.024 C 374.000 246.707,373.820 246.336,373.600 246.200 C 373.380 246.064,373.200 246.323,373.200 246.776 M374.412 247.500 C 374.405 247.775,374.061 248.000,373.647 248.000 C 372.691 248.000,372.411 249.043,372.412 252.600 C 372.412 255.702,372.729 256.555,373.737 256.169 C 374.107 256.027,374.678 256.133,375.005 256.404 C 375.819 257.080,375.815 254.226,375.000 252.800 C 374.232 251.456,374.202 250.376,374.961 251.414 C 375.463 252.100,375.500 251.971,375.310 250.191 C 375.112 248.337,374.441 246.325,374.412 247.500 M368.613 265.900 C 369.101 268.367,369.265 268.807,369.612 268.593 C 370.394 268.109,370.073 265.200,369.237 265.200 C 368.725 265.200,368.520 265.430,368.613 265.900 M357.661 276.429 C 356.416 277.589,356.555 278.400,358.000 278.400 C 359.061 278.400,359.200 278.264,359.200 277.224 C 359.200 275.687,358.722 275.440,357.661 276.429 M351.028 286.700 C 350.317 290.818,350.311 291.239,350.957 291.952 C 351.312 292.344,351.466 292.805,351.301 292.976 C 351.135 293.147,351.345 293.222,351.767 293.143 C 352.189 293.065,352.617 292.750,352.719 292.444 C 352.842 292.075,352.718 291.985,352.352 292.174 C 352.048 292.331,352.094 292.216,352.454 291.919 C 353.006 291.463,353.050 291.034,352.733 289.189 C 352.527 287.985,352.345 286.595,352.329 286.100 C 352.282 284.629,351.309 285.078,351.028 286.700 M314.332 299.715 C 313.379 299.888,311.925 299.973,311.100 299.904 C 310.275 299.835,309.600 299.899,309.600 300.046 C 309.600 300.194,308.714 300.266,307.630 300.208 C 306.547 300.149,304.702 300.358,303.530 300.671 C 302.225 301.020,300.006 301.197,297.800 301.128 C 295.820 301.066,293.991 301.147,293.736 301.309 C 293.481 301.470,293.019 301.506,292.710 301.387 C 288.694 299.846,275.558 311.327,270.627 320.690 C 269.842 322.181,268.485 324.341,267.612 325.492 C 266.739 326.643,265.634 328.353,265.158 329.292 C 264.681 330.231,263.838 331.540,263.285 332.200 C 261.539 334.282,257.901 342.416,258.194 343.580 C 258.336 344.141,258.587 347.395,258.752 350.811 C 259.116 358.321,258.947 357.942,266.433 368.000 C 273.385 377.340,276.272 382.876,282.545 398.900 L 282.975 400.000 303.030 400.000 L 323.085 400.000 324.670 397.900 C 331.507 388.839,334.083 385.567,337.814 381.200 C 340.164 378.450,343.172 374.850,344.498 373.200 C 345.823 371.550,348.471 368.670,350.382 366.800 C 359.360 358.010,359.507 357.345,355.829 342.000 C 353.122 330.703,351.560 327.199,343.616 314.600 C 336.944 304.020,334.387 301.144,331.000 300.412 C 329.900 300.174,328.730 299.876,328.400 299.751 C 327.460 299.393,316.260 299.364,314.332 299.715 M104.200 300.023 C 103.320 300.205,101.430 300.370,100.000 300.389 C 98.570 300.408,95.690 300.759,93.600 301.169 C 91.510 301.578,89.306 301.851,88.703 301.776 C 88.099 301.700,86.929 301.922,86.103 302.269 C 85.276 302.615,83.473 303.039,82.096 303.211 C 80.217 303.446,79.257 303.807,78.243 304.662 C 77.501 305.288,76.343 306.217,75.670 306.726 C 74.908 307.304,74.204 308.385,73.801 309.596 C 73.447 310.664,72.863 311.777,72.505 312.069 C 72.147 312.361,70.825 314.187,69.567 316.126 C 67.120 319.900,62.836 324.618,60.606 325.997 C 59.855 326.460,59.126 327.203,58.985 327.646 C 58.658 328.677,56.454 331.200,55.880 331.200 C 55.147 331.200,53.200 333.303,53.200 334.095 C 53.200 334.504,52.959 335.326,52.665 335.920 C 50.838 339.611,50.994 346.540,53.009 351.200 C 53.722 352.850,54.533 354.920,54.810 355.800 C 55.087 356.680,57.362 361.502,59.866 366.515 C 62.370 371.528,65.150 377.468,66.044 379.715 C 69.249 387.770,72.026 394.249,73.497 397.100 L 74.993 400.000 100.097 400.000 L 125.200 400.000 125.200 399.167 C 125.200 394.473,136.161 380.161,148.488 368.758 C 154.387 363.301,154.468 362.880,151.541 352.855 C 149.083 344.438,145.008 335.997,140.602 330.200 C 138.030 326.816,137.102 324.774,134.394 316.539 C 131.460 307.620,131.832 307.967,121.200 304.213 C 118.230 303.164,114.648 301.698,113.240 300.953 C 110.522 299.517,107.935 299.250,104.200 300.023 M377.063 333.111 C 376.527 333.229,376.389 333.508,376.557 334.136 C 376.685 334.611,376.792 335.835,376.795 336.856 C 376.800 338.748,379.163 340.025,380.094 338.638 C 381.184 337.014,378.830 332.721,377.063 333.111 M6.149 369.545 C 3.345 370.249,2.767 370.279,0.924 369.817 C 0.086 369.606,-0.000 369.720,-0.000 371.038 C -0.000 372.483,0.006 372.488,0.966 371.859 C 5.287 369.028,13.318 369.992,20.400 374.193 C 21.610 374.910,24.680 376.438,27.223 377.588 C 33.408 380.384,36.313 382.938,38.160 387.200 C 38.875 388.850,40.472 391.610,41.710 393.332 C 43.297 395.541,44.039 396.986,44.226 398.232 C 44.471 399.866,44.581 400.000,45.678 400.000 L 46.866 400.000 45.619 397.900 C 44.934 396.745,43.638 394.368,42.740 392.617 C 41.842 390.866,40.273 388.194,39.254 386.678 C 38.234 385.163,36.950 383.085,36.400 382.061 C 35.620 380.609,34.829 379.873,32.800 378.711 C 27.656 375.765,19.738 371.978,16.600 370.962 C 14.840 370.393,13.220 369.780,13.000 369.601 C 12.106 368.872,8.929 368.847,6.149 369.545 M399.200 370.370 C 398.870 370.560,396.170 371.285,393.200 371.981 C 384.445 374.032,384.797 373.890,382.377 376.345 C 379.855 378.903,375.200 384.705,375.200 385.291 C 375.200 385.730,378.435 382.969,382.600 378.977 C 386.596 375.147,395.601 371.743,399.229 372.692 C 399.885 372.863,400.000 372.678,400.000 371.447 C 400.000 370.651,399.955 370.005,399.900 370.012 C 399.845 370.019,399.530 370.180,399.200 370.370 M370.926 389.100 C 369.272 390.805,367.230 393.190,366.390 394.400 C 365.549 395.610,364.128 397.365,363.232 398.300 L 361.602 400.000 363.013 400.000 C 364.012 400.000,364.486 399.795,364.634 399.300 C 365.171 397.495,366.558 395.308,367.742 394.400 C 369.677 392.915,374.800 387.046,374.800 386.313 C 374.800 385.461,373.662 386.279,370.926 389.100 " stroke="none" fill="#e49b72" fill-rule="evenodd"></path><path id="path3" d="M167.600 0.739 C 167.600 1.145,167.336 2.006,167.014 2.652 C 166.691 3.299,166.239 5.493,166.008 7.528 C 164.996 16.462,162.635 23.781,159.124 28.874 C 158.716 29.464,158.119 30.724,157.797 31.674 L 157.210 33.400 158.203 32.200 C 158.749 31.540,159.656 30.031,160.218 28.848 C 160.780 27.664,161.680 26.118,162.218 25.412 C 162.756 24.706,163.408 23.523,163.666 22.782 C 163.925 22.041,164.677 20.563,165.339 19.499 C 166.485 17.655,166.556 17.285,166.830 11.682 C 167.110 5.956,168.062 1.703,169.226 0.984 C 169.940 0.543,169.595 0.000,168.600 0.000 C 167.894 0.000,167.600 0.217,167.600 0.739 M248.400 0.386 C 248.400 0.742,249.653 1.600,250.174 1.600 C 250.298 1.600,250.400 1.240,250.400 0.800 C 250.400 0.213,250.133 0.000,249.400 0.000 C 248.850 0.000,248.400 0.174,248.400 0.386 M107.000 39.564 C 105.900 39.967,103.470 40.961,101.600 41.773 C 99.730 42.586,96.850 43.794,95.200 44.458 C 93.550 45.122,90.973 46.202,89.474 46.859 C 86.110 48.331,85.428 48.216,81.537 45.512 C 79.922 44.390,77.827 42.943,76.883 42.296 C 72.314 39.167,68.497 41.805,60.669 53.501 C 53.537 64.155,53.845 63.293,52.198 77.196 C 51.429 83.683,50.800 90.093,50.800 91.440 L 50.800 93.890 54.700 98.672 C 56.845 101.302,59.943 105.008,61.585 106.906 C 63.840 109.514,65.602 112.247,68.790 118.079 C 80.406 139.333,79.148 137.844,90.282 143.500 C 100.293 148.586,99.840 148.560,112.956 144.766 C 121.659 142.249,121.288 142.615,134.209 123.800 C 135.720 121.600,137.910 118.470,139.076 116.844 C 142.269 112.390,143.624 109.231,147.030 98.296 C 151.386 84.311,151.429 84.532,140.281 63.981 C 128.118 41.559,129.267 42.642,114.800 39.989 C 112.270 39.525,109.930 39.075,109.600 38.989 C 109.270 38.903,108.100 39.162,107.000 39.564 M25.000 109.789 L 23.800 110.335 25.151 110.368 C 27.800 110.431,32.106 113.607,34.231 117.064 C 35.517 119.157,35.497 117.778,34.201 115.039 C 32.649 111.759,27.335 108.727,25.000 109.789 M21.000 111.427 C 19.302 112.308,18.737 112.968,20.000 112.594 C 21.240 112.228,23.200 111.245,23.200 110.990 C 23.200 110.614,22.176 110.817,21.000 111.427 M12.220 115.534 C 11.219 116.084,10.456 116.590,10.524 116.657 C 10.719 116.853,14.362 115.398,14.816 114.944 C 15.594 114.166,14.083 114.509,12.220 115.534 M37.613 123.876 C 37.626 124.605,38.486 126.000,38.923 126.000 C 39.258 126.000,38.394 123.644,37.961 123.376 C 37.762 123.253,37.606 123.478,37.613 123.876 M374.275 184.651 C 376.687 190.936,381.308 195.690,389.412 200.222 C 394.917 203.300,392.171 200.235,385.800 196.189 C 382.309 193.972,377.814 189.460,376.173 186.525 C 374.902 184.253,373.646 183.012,374.275 184.651 M398.800 205.151 C 398.800 205.344,399.070 205.726,399.400 206.000 C 399.901 206.416,400.000 206.358,400.000 205.649 C 400.000 205.161,399.745 204.800,399.400 204.800 C 399.070 204.800,398.800 204.958,398.800 205.151 M382.477 231.870 C 377.825 234.163,376.074 240.738,377.412 250.890 L 378.145 256.452 377.249 259.498 C 376.062 263.533,371.822 272.719,370.515 274.086 C 369.944 274.684,366.777 276.844,363.477 278.886 C 353.763 284.899,353.588 285.175,355.631 291.292 C 358.041 298.508,361.112 302.911,370.635 312.800 C 374.620 316.938,375.275 318.042,380.371 329.200 C 384.051 337.257,384.049 337.253,386.071 338.264 C 388.218 339.338,394.629 341.091,397.700 341.445 L 400.000 341.710 400.000 289.511 L 400.000 237.312 397.816 237.087 C 396.163 236.916,394.308 236.174,390.175 234.031 C 384.140 230.900,384.335 230.955,382.477 231.870 M22.400 232.603 C 20.970 232.893,17.730 233.712,15.200 234.423 C 8.333 236.352,6.095 236.782,2.900 236.792 L 0.000 236.800 0.000 289.200 C 0.000 318.020,0.085 341.600,0.189 341.600 C 0.841 341.600,11.417 338.560,14.308 337.542 C 20.579 335.333,20.780 335.114,21.593 329.600 C 22.643 322.475,24.793 312.267,25.590 310.620 C 27.416 306.849,37.208 298.547,46.844 292.600 C 47.732 292.052,48.747 290.664,50.062 288.200 L 51.982 284.600 51.974 277.600 C 51.968 272.880,51.795 270.125,51.443 269.140 C 49.813 264.577,28.799 233.084,26.903 232.363 C 25.761 231.929,25.705 231.932,22.400 232.603 M191.700 365.996 C 190.138 366.948,190.026 367.600,191.426 367.600 C 193.059 367.600,193.821 368.213,196.392 371.590 C 199.655 375.876,202.033 376.198,216.871 374.358 C 221.351 373.803,228.770 374.082,231.916 374.925 C 234.684 375.666,235.624 376.612,238.262 381.311 C 239.469 383.462,240.908 385.712,241.460 386.311 L 242.462 387.400 242.239 386.093 C 241.366 380.955,236.281 374.634,230.700 371.748 C 229.026 370.882,222.518 370.973,212.800 371.997 C 200.052 373.341,198.393 373.077,196.664 369.425 C 194.799 365.487,193.737 364.754,191.700 365.996 M181.743 371.909 C 180.805 372.665,180.106 374.400,180.739 374.400 C 180.956 374.400,181.703 373.680,182.400 372.800 C 183.709 371.147,183.328 370.631,181.743 371.909 M173.873 392.350 C 173.484 393.312,173.251 394.184,173.354 394.287 C 173.673 394.607,174.856 391.985,174.713 391.273 C 174.631 390.860,174.306 391.275,173.873 392.350 M169.800 398.800 L 168.650 400.000 169.925 400.000 C 170.626 400.000,171.213 399.865,171.230 399.700 C 171.246 399.535,171.335 398.995,171.427 398.500 C 171.655 397.280,171.171 397.369,169.800 398.800 M247.200 399.400 C 247.200 399.781,247.583 400.000,248.249 400.000 C 249.136 400.000,249.221 399.907,248.800 399.400 C 248.526 399.070,248.054 398.800,247.751 398.800 C 247.448 398.800,247.200 399.070,247.200 399.400 " stroke="none" fill="#e9d7a2" fill-rule="evenodd"></path><path id="path4" d="M152.800 1.141 C 152.800 1.768,152.006 4.178,151.035 6.495 C 146.948 16.249,145.535 22.662,145.442 31.882 C 145.391 36.897,145.667 37.306,149.301 37.600 C 152.297 37.842,152.178 37.692,157.486 48.000 C 159.468 51.850,162.351 57.250,163.891 60.000 C 165.431 62.750,167.081 65.767,167.557 66.705 C 169.401 70.342,184.719 81.600,187.822 81.600 C 192.512 81.600,199.449 75.384,201.195 69.617 C 202.412 65.598,203.377 65.074,205.458 67.300 C 207.431 69.411,208.284 70.873,209.205 73.725 C 210.523 77.805,215.129 82.400,217.900 82.400 C 219.417 82.400,226.118 79.947,228.904 78.372 C 236.820 73.898,237.779 72.419,238.616 63.400 C 239.399 54.969,240.473 52.347,245.154 47.439 C 247.063 45.437,250.138 42.090,251.986 40.000 C 253.835 37.910,256.780 34.731,258.531 32.935 C 266.734 24.518,265.276 8.849,255.608 1.532 C 253.214 -0.280,250.400 -0.675,250.400 0.800 C 250.400 1.819,249.819 1.819,248.800 0.800 C 248.011 0.011,247.467 0.000,208.886 0.000 L 169.772 0.000 169.076 1.180 C 167.585 3.703,167.129 5.842,166.837 11.682 C 166.557 17.279,166.484 17.657,165.339 19.499 C 164.677 20.563,163.925 22.041,163.666 22.782 C 163.408 23.523,162.756 24.706,162.218 25.412 C 161.680 26.118,160.780 27.664,160.218 28.848 C 159.656 30.031,158.749 31.540,158.203 32.200 L 157.210 33.400 157.797 31.674 C 158.119 30.724,158.716 29.464,159.124 28.874 C 162.635 23.781,164.996 16.462,166.008 7.528 C 166.239 5.493,166.691 3.299,167.014 2.652 C 168.349 -0.025,168.413 0.000,160.200 0.000 L 152.800 0.000 152.800 1.141 M73.000 30.560 C 68.462 31.995,68.358 32.131,61.584 45.400 C 58.664 51.120,56.139 55.980,55.973 56.200 C 55.807 56.420,52.663 62.810,48.986 70.400 L 42.301 84.200 42.295 87.200 C 42.292 88.935,42.662 91.749,43.172 93.872 C 44.096 97.721,44.159 97.833,51.836 109.345 C 56.114 115.760,57.169 117.369,58.894 120.119 C 59.832 121.614,61.423 123.954,62.428 125.319 C 64.478 128.102,71.080 138.116,73.309 141.825 C 74.910 144.488,76.218 145.540,83.512 150.029 C 87.515 152.493,98.763 158.400,99.452 158.400 C 99.597 158.400,99.594 156.806,99.447 154.859 C 99.060 149.725,99.270 149.465,104.800 148.225 C 114.503 146.050,121.029 143.705,122.854 141.737 C 125.583 138.795,141.761 115.644,143.499 112.195 C 145.832 107.562,149.938 94.063,150.979 87.600 C 151.810 82.442,152.285 82.162,156.912 84.106 C 157.964 84.547,158.919 84.814,159.035 84.699 C 159.649 84.084,154.262 72.648,145.329 55.600 C 137.062 39.823,131.268 33.893,122.000 31.722 C 120.570 31.386,118.348 30.828,117.062 30.481 L 114.724 29.850 107.662 31.553 C 103.778 32.490,97.951 33.798,94.714 34.461 L 88.827 35.666 86.114 34.589 C 84.621 33.996,81.757 32.721,79.748 31.756 C 75.809 29.862,75.422 29.794,73.000 30.560 M72.400 34.253 C 72.400 34.549,70.792 37.200,70.613 37.200 C 70.546 37.200,70.414 36.679,70.321 36.041 C 70.198 35.207,70.296 34.939,70.672 35.083 C 70.959 35.193,71.304 34.994,71.439 34.642 C 71.676 34.025,72.400 33.732,72.400 34.253 M114.800 39.989 C 129.267 42.642,128.118 41.559,140.281 63.981 C 151.429 84.532,151.386 84.311,147.030 98.296 C 143.624 109.231,142.269 112.390,139.076 116.844 C 137.910 118.470,135.720 121.600,134.209 123.800 C 121.288 142.615,121.659 142.249,112.956 144.766 C 99.840 148.560,100.293 148.586,90.282 143.500 C 79.148 137.844,80.406 139.333,68.790 118.079 C 65.602 112.247,63.840 109.514,61.585 106.906 C 59.943 105.008,56.845 101.302,54.700 98.672 L 50.800 93.890 50.800 91.440 C 50.800 90.093,51.429 83.683,52.198 77.196 C 53.845 63.293,53.537 64.155,60.669 53.501 C 68.497 41.805,72.314 39.167,76.883 42.296 C 77.827 42.943,79.922 44.390,81.537 45.512 C 85.428 48.216,86.110 48.331,89.474 46.859 C 90.973 46.202,93.550 45.122,95.200 44.458 C 96.850 43.794,99.730 42.586,101.600 41.773 C 106.456 39.664,108.911 38.809,109.600 38.989 C 109.930 39.075,112.270 39.525,114.800 39.989 M20.600 101.190 C 18.620 101.580,14.750 102.295,12.000 102.779 C 4.717 104.062,5.079 103.757,4.600 109.013 L 4.200 113.400 2.112 113.314 L 0.024 113.228 0.006 161.014 C -0.003 187.296,0.089 208.800,0.213 208.800 C 0.862 208.800,14.062 204.608,16.650 203.580 C 20.702 201.971,22.463 201.047,25.900 198.731 C 31.571 194.907,32.621 193.536,41.609 178.200 C 44.317 173.580,48.572 166.634,51.066 162.764 C 56.361 154.546,56.217 155.450,53.341 148.477 C 48.847 137.579,48.076 135.755,46.801 133.000 C 46.088 131.460,44.915 128.760,44.194 127.000 C 38.412 112.882,36.815 110.387,31.624 107.350 C 27.276 104.807,27.214 104.742,27.206 102.690 C 27.196 100.274,26.293 100.068,20.600 101.190 M383.000 101.587 C 379.497 102.386,376.793 104.735,372.632 110.592 C 362.311 125.120,359.454 129.185,354.236 136.764 C 345.753 149.088,346.666 146.705,346.891 155.929 C 347.210 169.010,348.586 171.144,355.315 168.995 C 358.765 167.893,360.496 167.745,361.106 168.500 C 361.526 169.020,364.472 174.634,368.821 183.200 C 375.075 195.517,376.307 196.858,387.680 203.724 C 397.433 209.613,400.000 210.472,400.000 207.849 C 400.000 207.106,399.730 206.274,399.400 206.000 C 398.629 205.360,398.632 204.800,399.406 204.800 C 399.943 204.800,400.009 199.582,399.993 158.397 L 399.975 111.994 398.288 110.928 C 397.359 110.341,395.282 109.150,393.670 108.280 C 391.277 106.988,390.591 106.392,389.929 105.029 C 388.624 102.343,385.811 100.946,383.000 101.587 M30.501 111.319 C 32.798 112.686,33.351 113.242,34.201 115.039 C 35.497 117.778,35.517 119.157,34.231 117.064 C 32.106 113.607,27.800 110.431,25.151 110.368 L 23.800 110.335 25.000 109.789 C 26.476 109.117,27.088 109.288,30.501 111.319 M23.200 110.990 C 23.200 111.245,21.240 112.228,20.000 112.594 C 19.307 112.799,19.123 112.761,19.400 112.470 C 20.318 111.506,23.200 110.383,23.200 110.990 M14.816 114.944 C 14.362 115.398,10.719 116.853,10.524 116.657 C 10.311 116.445,14.009 114.533,14.633 114.533 C 15.039 114.533,15.097 114.663,14.816 114.944 M38.740 124.799 C 38.970 125.460,39.053 126.000,38.923 126.000 C 38.486 126.000,37.626 124.605,37.613 123.876 C 37.595 122.848,38.245 123.381,38.740 124.799 M376.173 186.525 C 377.814 189.460,382.309 193.972,385.800 196.189 C 392.171 200.235,394.917 203.300,389.412 200.222 C 381.308 195.690,376.687 190.936,374.275 184.651 C 373.646 183.012,374.902 184.253,376.173 186.525 M15.200 226.436 C 10.470 227.297,5.115 228.118,3.300 228.261 L 0.000 228.519 0.000 232.659 L 0.000 236.800 2.900 236.792 C 6.116 236.782,8.160 236.385,15.800 234.282 C 22.598 232.412,25.639 231.882,26.880 232.354 C 28.321 232.902,39.704 249.414,48.379 263.540 C 51.925 269.314,51.963 269.464,51.974 277.600 L 51.982 284.600 50.062 288.200 C 48.747 290.664,47.732 292.052,46.844 292.600 C 37.208 298.547,27.416 306.849,25.590 310.620 C 24.793 312.267,22.643 322.475,21.593 329.600 C 20.681 335.785,19.303 336.630,3.300 340.823 C 0.257 341.620,-0.000 341.767,0.000 342.706 C 0.000 343.639,0.058 343.674,0.700 343.119 C 1.085 342.786,2.660 342.214,4.200 341.846 C 8.564 340.806,18.061 337.679,19.478 336.816 C 21.661 335.488,22.071 334.370,23.649 325.453 C 25.432 315.381,26.181 312.356,27.446 310.135 C 29.011 307.383,40.480 297.880,45.694 295.014 C 48.799 293.307,49.166 292.926,50.822 289.685 C 51.529 288.301,52.609 286.632,53.222 285.976 L 54.337 284.783 62.107 285.052 C 70.841 285.355,70.844 285.354,69.443 282.720 C 68.924 281.743,67.139 278.346,65.477 275.172 C 63.815 271.997,61.084 267.060,59.409 264.200 C 57.733 261.340,55.220 256.660,53.825 253.800 C 52.429 250.940,50.493 247.520,49.523 246.200 C 48.552 244.880,46.975 242.630,46.018 241.200 C 45.061 239.770,43.270 237.500,42.039 236.155 C 40.807 234.810,38.458 232.220,36.818 230.399 C 31.261 224.230,29.294 223.869,15.200 226.436 M380.200 226.663 C 375.685 228.980,375.952 228.409,369.591 249.400 C 366.774 258.697,366.912 258.453,355.000 275.200 C 347.949 285.114,348.006 284.993,348.002 290.022 C 348.000 293.553,348.685 294.908,352.656 299.225 C 353.958 300.641,355.514 302.520,356.114 303.400 C 357.042 304.761,362.193 312.162,364.271 315.119 C 364.927 316.053,365.905 318.640,368.990 327.600 C 375.264 345.829,376.225 347.511,381.287 349.130 C 385.103 350.351,393.886 352.297,396.716 352.549 C 398.101 352.672,399.406 352.880,399.616 353.010 C 399.854 353.157,400.000 351.057,400.000 347.479 L 400.000 341.710 397.700 341.445 C 394.629 341.091,388.218 339.338,386.071 338.264 C 384.049 337.253,384.051 337.257,380.371 329.200 C 375.275 318.042,374.620 316.938,370.635 312.800 C 361.112 302.911,358.041 298.508,355.631 291.292 C 353.588 285.175,353.763 284.899,363.477 278.886 C 366.777 276.844,369.944 274.684,370.515 274.086 C 371.822 272.719,376.062 263.533,377.249 259.498 L 378.145 256.452 377.412 250.890 C 376.240 241.996,377.171 236.808,380.545 233.434 C 383.303 230.676,383.723 230.700,390.113 234.002 C 394.294 236.162,396.183 236.918,397.825 237.087 L 400.000 237.312 400.000 233.327 L 400.000 229.341 397.500 228.847 C 396.125 228.576,393.476 228.078,391.613 227.741 C 389.750 227.403,387.552 226.784,386.729 226.364 C 384.710 225.334,382.603 225.430,380.200 226.663 M374.885 245.200 C 375.006 246.019,374.893 246.400,374.531 246.400 C 374.208 246.400,374.000 245.930,374.000 245.200 C 374.000 244.540,374.160 244.000,374.355 244.000 C 374.550 244.000,374.788 244.540,374.885 245.200 M374.000 247.024 C 374.000 247.341,373.820 247.600,373.600 247.600 C 373.380 247.600,373.200 247.229,373.200 246.776 C 373.200 246.323,373.380 246.064,373.600 246.200 C 373.820 246.336,374.000 246.707,374.000 247.024 M375.310 250.191 C 375.500 251.971,375.463 252.100,374.961 251.414 C 374.202 250.376,374.232 251.456,375.000 252.800 C 375.815 254.226,375.819 257.080,375.005 256.404 C 374.678 256.133,374.107 256.027,373.737 256.169 C 372.729 256.555,372.412 255.702,372.412 252.600 C 372.411 249.043,372.691 248.000,373.647 248.000 C 374.061 248.000,374.405 247.775,374.412 247.500 C 374.441 246.325,375.112 248.337,375.310 250.191 M370.000 266.776 C 370.000 267.643,369.825 268.461,369.612 268.593 C 369.265 268.807,369.101 268.367,368.613 265.900 C 368.520 265.430,368.725 265.200,369.237 265.200 C 369.859 265.200,370.000 265.492,370.000 266.776 M359.200 277.224 C 359.200 278.264,359.061 278.400,358.000 278.400 C 356.555 278.400,356.416 277.589,357.661 276.429 C 358.722 275.440,359.200 275.687,359.200 277.224 M352.329 286.100 C 352.345 286.595,352.527 287.985,352.733 289.189 C 353.050 291.034,353.006 291.463,352.454 291.919 C 352.094 292.216,352.048 292.331,352.352 292.174 C 352.718 291.985,352.842 292.075,352.719 292.444 C 352.617 292.750,352.189 293.065,351.767 293.143 C 351.345 293.222,351.135 293.147,351.301 292.976 C 351.466 292.805,351.312 292.344,350.957 291.952 C 350.311 291.239,350.317 290.818,351.028 286.700 C 351.309 285.078,352.282 284.629,352.329 286.100 M379.900 335.534 C 381.054 337.744,380.386 339.147,378.300 338.894 C 376.809 338.714,376.800 338.701,376.795 336.856 C 376.792 335.835,376.685 334.611,376.557 334.136 C 375.993 332.032,378.652 333.143,379.900 335.534 M189.200 354.709 C 186.856 354.891,181.604 356.005,179.931 356.674 C 178.288 357.332,177.139 358.809,172.524 366.200 C 171.424 367.960,168.500 372.539,166.024 376.375 C 160.899 384.317,158.893 387.947,156.175 394.200 C 155.122 396.620,153.995 398.915,153.669 399.300 C 153.107 399.963,153.488 400.000,160.863 400.000 L 168.650 400.000 169.800 398.800 C 170.432 398.140,171.099 397.600,171.281 397.600 C 171.463 397.600,171.516 398.140,171.400 398.800 L 171.189 400.000 209.194 400.000 C 242.710 400.000,247.200 399.929,247.200 399.400 C 247.200 399.070,247.448 398.800,247.751 398.800 C 248.054 398.800,248.526 399.070,248.800 399.400 C 249.491 400.233,251.844 400.185,252.171 399.331 C 252.328 398.922,251.907 397.792,251.090 396.431 C 249.485 393.755,249.044 392.771,247.580 388.600 C 244.058 378.565,242.783 376.240,239.332 373.554 C 232.536 368.266,232.633 368.501,235.165 363.515 C 237.463 358.990,237.644 357.757,236.208 356.407 C 234.917 355.194,226.675 355.464,217.477 357.021 C 214.190 357.577,210.169 358.201,208.540 358.408 C 203.933 358.992,204.000 358.913,204.000 363.734 C 204.000 368.202,203.755 368.800,201.927 368.800 C 200.991 368.800,200.650 368.478,199.792 366.784 C 199.230 365.675,198.137 363.939,197.364 362.925 C 196.046 361.199,195.974 360.951,196.218 358.996 C 196.594 355.987,193.902 354.342,189.200 354.709 M194.612 366.175 C 195.148 366.712,196.072 368.174,196.664 369.425 C 198.393 373.077,200.052 373.341,212.800 371.997 C 222.518 370.973,229.026 370.882,230.700 371.748 C 236.281 374.634,241.366 380.955,242.239 386.093 L 242.462 387.400 241.460 386.311 C 240.908 385.712,239.469 383.462,238.262 381.311 C 235.624 376.612,234.684 375.666,231.916 374.925 C 228.770 374.082,221.351 373.803,216.871 374.358 C 202.033 376.198,199.655 375.876,196.392 371.590 C 193.821 368.213,193.059 367.600,191.426 367.600 C 190.026 367.600,190.138 366.948,191.700 365.996 C 193.344 364.993,193.435 364.999,194.612 366.175 M182.400 372.800 C 180.994 374.575,180.200 374.886,180.616 373.500 C 180.917 372.495,182.315 371.223,183.134 371.209 C 183.452 371.204,183.157 371.844,182.400 372.800 M174.195 393.210 C 173.260 395.018,173.036 394.422,173.873 392.350 C 174.306 391.275,174.631 390.860,174.713 391.273 C 174.788 391.643,174.554 392.515,174.195 393.210 " stroke="none" fill="#baaea2" fill-rule="evenodd"></path></g></svg>